# xmcd
#
# Track frame offsets:
#	150
#	13766
#	24885
#	36607
#	49883
#	66000
#	77946
#	90495
#	103261
#	121812
#	135357
#	147049
#	157289
#	172720
#	187677
#	197952
#	211509
#	226524
#	238344
#	249277
#
# Disc length: 3507 seconds
#
# Revision: 1
# Processed by: cddbd v1.4PL0 Copyright (c) Steve Scherf et al.
# Submitted via: audiograbber 1.81.01
#
DISCID=000db114
DTITLE=Kenny Rogers - For The Good Times
DYEAR=1900
DGENRE=
TTITLE0=A Stranger In My Place
TTITLE1=Always Leaving, Always Gone
TTITLE2=Poem For My Little Lady
TTITLE3=Ruby Don't Take Your Love To Town
TTITLE4=Tulsa Turnaround
TTITLE5=Elvira
TTITLE6=Ruben James
TTITLE7=Love Woman
TTITLE8=The King Of Oak Street
TTITLE9=Shine On Ruby Mountain
TTITLE10=Me and Bobby McGee
TTITLE11=Where Does Rosie Go
TTITLE12=For The Good Times
TTITLE13=After All (I Live My Life)
TTITLE14=Trying Just As Hard
TTITLE15=It's Gonna Be Better
TTITLE16=Heed The Call
TTITLE17=I Just Want To Give My Love To You
TTITLE18=Last Few Threads Of Love
TTITLE19=I'm Gonna Sing You A Sad Song Susy
EXTD=
EXTT0=
EXTT1=
EXTT2=
EXTT3=
EXTT4=
EXTT5=
EXTT6=
EXTT7=
EXTT8=
EXTT9=
EXTT10=
EXTT11=
EXTT12=
EXTT13=
EXTT14=
EXTT15=
EXTT16=
EXTT17=
EXTT18=
EXTT19=
PLAYORDER=
